 http://www.scenespeeds.com/

IMDB Link http://www.imdb.com/title/tt1640569/
Complete name : The.Super.2011.DvDScr.XviD.AC3-XtremE
Format : AVI
Format/Info : Audio Video Interleave
File size : 1.37 GiB
Duration : 1h 37mn
Overall bit rate : 2 006 Kbps
Writing library : VirtualDub-MPEG2 build 24586/release
Video
ID : 0
Format : MPEG-4 Visual
Format profile : Advanced Simple@L5
Format settings, BVOP : 2
Format settings, QPel : No
Format settings, GMC : No warppoints
Format settings, Matrix : Default (H.263)
Muxing mode : Packed bitstream
Codec ID : XVID
Codec ID/Hint : XviD
Duration : 1h 37mn
Bit rate : 1 740 Kbps
Width : 720 pixels
Height : 304 pixels
Display aspect ratio : 2.35:1
Frame rate : 23.976 fps
Color space : YUV
Chroma subsampling : 4:2:0
Bit depth : 8 bits
Scan type : Progressive
Compression mode : Lossy
Bits/(Pixel*Frame) : 0.332
Stream size : 1.19 GiB (87%)
Writing library : XviD 1.2.1 (UTC 2008-12-04)
Audio
ID : 1
Format : AC-3
Format/Info : Audio Coding 3
Mode extension : CM (complete main)
Codec ID : 2000
Duration : 1h 37mn
Bit rate mode : Constant
Bit rate : 256 Kbps
Channel(s) : 2 channels
Channel positions : Front: L R
Sampling rate : 48.0 KHz
Bit depth : 16 bits
Compression mode : Lossy
Stream size : 179 MiB (13%)
Alignment : Aligned on interleaves
Interleave, duration : 42 ms (1.00 video frame)


Plot
George Rossi, who immigrated to the US and served in the Vietnam war, is now a Superintendent of a Queens apartment building. He finds himself quickly slipping into a depraved world which is fueled by the tenants of the building.

 
http://www.scenespeeds.com/
 
http://image.bayimg.com/jahkcaadk.jpg